####
#
# OBJ File Generated by Meshlab
#
####
# Object square_hollow_handle v3.obj
#
# Vertices: 130
# Faces: 260
#
####
mtllib ./square_hollow_handle v3.obj.mtl

vn -1.570796 1.570796 4.712389
v 45.000000 5.000000 50.000000
vn -1.570796 -1.570796 4.712389
v 45.000000 45.000000 50.000000
vn -1.570796 1.570796 -4.712389
v 45.000000 5.000000 0.000000
vn -1.570796 -1.570796 -4.712389
v 45.000000 45.000000 0.000000
vn 1.570796 -1.570796 4.712388
v 5.000000 45.000000 50.000000
vn 1.570796 -1.570796 -4.712389
v 5.000000 45.000000 0.000000
vn 1.570796 1.570796 4.712389
v 5.000000 5.000000 50.000000
vn 1.570796 1.570796 -4.712388
v 5.000000 5.000000 0.000000
vn -3.117783 -3.031352 0.345081
v 15.060690 -15.000000 26.100080
vn -3.136822 -3.031367 -0.000000
v 15.000000 -15.000000 25.000000
vn 3.094042 -3.031355 0.516295
v 34.863609 -15.000000 26.645950
vn -3.117782 -3.031352 -0.345081
v 15.060690 -15.000000 23.899920
vn -3.060898 -3.031368 -0.685973
v 15.242040 -15.000000 22.813190
vn -2.966862 -3.031365 -1.018518
v 15.541830 -15.000000 21.753010
vn -2.836807 -3.031353 -1.338721
v 15.956430 -15.000000 20.732229
vn -2.672325 -3.031374 -1.642664
v 16.480810 -15.000000 19.763269
vn -2.475399 -3.031351 -1.926668
v 17.108589 -15.000000 18.857870
vn -2.248418 -3.031364 -2.187298
v 17.832170 -15.000000 18.027031
vn -1.994143 -3.031353 -2.421372
v 18.642759 -15.000000 17.280830
vn -1.715670 -3.031370 -2.626049
v 19.530519 -15.000000 16.628340
vn -1.416385 -3.031363 -2.798841
v 20.484671 -15.000000 16.077459
vn -1.099887 -3.031355 -2.937669
v 21.493620 -15.000000 15.634890
vn -0.770045 -3.031368 -3.040836
v 22.545151 -15.000000 15.306000
vn -0.430854 -3.031355 -3.107091
v 23.626459 -15.000000 15.094780
vn -0.086440 -3.031372 -3.135631
v 24.724461 -15.000000 15.003800
vn 0.259024 -3.031355 -3.126109
v 25.825790 -15.000000 15.034150
vn 0.601368 -3.031355 -3.078637
v 26.917110 -15.000000 15.185480
vn 0.936402 -3.031362 -2.993794
v 27.985149 -15.000000 15.455950
vn 1.260053 -3.031366 -2.872616
v 29.016951 -15.000000 15.842270
vn 1.568409 -3.031362 -2.716569
v 30.000000 -15.000000 16.339750
vn 1.857728 -3.031366 -2.527548
v 30.922350 -15.000000 16.942350
vn 2.124506 -3.031354 -2.307839
v 31.772820 -15.000000 17.642759
vn 2.365500 -3.031363 -2.060112
v 32.541069 -15.000000 18.432480
vn 2.577774 -3.031359 -1.787382
v 33.217781 -15.000000 19.301920
vn 2.758757 -3.031361 -1.492954
v 33.794739 -15.000000 20.240530
vn 2.906246 -3.031369 -1.180419
v 34.264938 -15.000000 21.236910
vn 3.018462 -3.031352 -0.853542
v 34.622681 -15.000000 22.278959
vn 3.094042 -3.031360 -0.516295
v 34.863609 -15.000000 23.354050
vn 3.132059 -3.031362 0.172798
v 34.984810 -15.000000 25.550880
vn 3.132060 -3.031363 -0.172798
v 34.984810 -15.000000 24.449120
vn -3.060898 -3.031370 0.685973
v 15.242040 -15.000000 27.186810
vn 3.018462 -3.031352 0.853542
v 34.622681 -15.000000 27.721041
vn -2.966862 -3.031366 1.018518
v 15.541830 -15.000000 28.246990
vn 2.906246 -3.031370 1.180420
v 34.264938 -15.000000 28.763090
vn -2.836807 -3.031352 1.338722
v 15.956430 -15.000000 29.267771
vn 2.758757 -3.031361 1.492954
v 33.794739 -15.000000 29.759470
vn -2.672324 -3.031373 1.642664
v 16.480810 -15.000000 30.236731
vn 2.577774 -3.031359 1.787382
v 33.217781 -15.000000 30.698080
vn -2.475399 -3.031353 1.926668
v 17.108589 -15.000000 31.142130
vn 2.365499 -3.031363 2.060114
v 32.541069 -15.000000 31.567520
vn -2.248418 -3.031364 2.187298
v 17.832170 -15.000000 31.972969
vn 2.124509 -3.031359 2.307838
v 31.772820 -15.000000 32.357239
vn -1.994152 -3.031360 2.421365
v 18.642759 -15.000000 32.719170
vn 1.857739 -3.031368 2.527541
v 30.922350 -15.000000 33.057652
vn -1.715667 -3.031353 2.626049
v 19.530519 -15.000000 33.371670
vn 1.568406 -3.031349 2.716569
v 30.000000 -15.000000 33.660259
vn -1.416373 -3.031373 2.798847
v 20.484671 -15.000000 33.922539
vn 1.260040 -3.031373 2.872623
v 29.016951 -15.000000 34.157730
vn -1.099890 -3.031357 2.937668
v 21.493620 -15.000000 34.365108
vn 0.936389 -3.031358 2.993798
v 27.985149 -15.000000 34.544048
vn -0.770047 -3.031367 3.040836
v 22.545151 -15.000000 34.694000
vn 0.601356 -3.031362 3.078640
v 26.917110 -15.000000 34.814510
vn -0.430855 -3.031354 3.107090
v 23.626459 -15.000000 34.905220
vn 0.259039 -3.031366 3.126108
v 25.825790 -15.000000 34.965839
vn -0.086425 -3.031361 3.135631
v 24.724461 -15.000000 34.996201
vn -3.117782 -3.251833 0.345081
v 15.060690 0.000000 26.100080
vn -3.136822 -3.251818 0.000000
v 15.000000 0.000000 25.000000
vn -3.117783 -3.251833 -0.345081
v 15.060690 0.000000 23.899920
vn -3.060898 -3.251818 -0.685973
v 15.242040 0.000000 22.813190
vn -2.966862 -3.251820 -1.018518
v 15.541830 0.000000 21.753010
vn -2.836807 -3.251832 -1.338722
v 15.956430 0.000000 20.732229
vn -2.672324 -3.251812 -1.642664
v 16.480810 0.000000 19.763269
vn -2.475399 -3.251834 -1.926668
v 17.108589 0.000000 18.857870
vn -2.248418 -3.251822 -2.187298
v 17.832170 0.000000 18.027031
vn -1.994143 -3.251832 -2.421372
v 18.642759 0.000000 17.280830
vn -1.715670 -3.251815 -2.626049
v 19.530519 0.000000 16.628340
vn -1.416385 -3.251822 -2.798841
v 20.484671 0.000000 16.077459
vn -1.099887 -3.251830 -2.937668
v 21.493620 0.000000 15.634890
vn -0.770045 -3.251817 -3.040837
v 22.545151 0.000000 15.306000
vn -0.430854 -3.251830 -3.107090
v 23.626459 0.000000 15.094780
vn -0.086440 -3.251813 -3.135632
v 24.724461 0.000000 15.003800
vn 0.259024 -3.251831 -3.126109
v 25.825790 0.000000 15.034150
vn 0.601368 -3.251830 -3.078637
v 26.917110 0.000000 15.185480
vn 0.936402 -3.251824 -2.993795
v 27.985149 0.000000 15.455950
vn 1.260053 -3.251819 -2.872616
v 29.016951 0.000000 15.842270
vn 1.568409 -3.251824 -2.716568
v 30.000000 0.000000 16.339750
vn 1.857728 -3.251819 -2.527548
v 30.922350 0.000000 16.942350
vn 2.124507 -3.251832 -2.307839
v 31.772820 0.000000 17.642759
vn 2.365500 -3.251823 -2.060112
v 32.541069 0.000000 18.432480
vn 2.577774 -3.251827 -1.787382
v 33.217781 0.000000 19.301920
vn 2.758757 -3.251824 -1.492954
v 33.794739 0.000000 20.240530
vn 2.906246 -3.251816 -1.180420
v 34.264938 0.000000 21.236910
vn 3.018462 -3.251833 -0.853542
v 34.622681 0.000000 22.278959
vn 3.094042 -3.251821 -0.516295
v 34.863609 0.000000 23.354050
vn 3.132059 -3.251822 -0.172798
v 34.984810 0.000000 24.449120
vn 3.132060 -3.251822 0.172798
v 34.984810 0.000000 25.550880
vn 3.094042 -3.251821 0.516295
v 34.863609 0.000000 26.645950
vn 3.018462 -3.251833 0.853542
v 34.622681 0.000000 27.721041
vn 2.906246 -3.251816 1.180419
v 34.264938 0.000000 28.763090
vn 2.758757 -3.251824 1.492954
v 33.794739 0.000000 29.759470
vn 2.577774 -3.251827 1.787382
v 33.217781 0.000000 30.698080
vn 2.365499 -3.251824 2.060114
v 32.541069 0.000000 31.567520
vn 2.124508 -3.251828 2.307838
v 31.772820 0.000000 32.357239
vn 1.857739 -3.251816 2.527540
v 30.922350 0.000000 33.057652
vn 1.568406 -3.251837 2.716569
v 30.000000 0.000000 33.660259
vn 1.260040 -3.251813 2.872623
v 29.016951 0.000000 34.157730
vn 0.936389 -3.251829 2.993798
v 27.985149 0.000000 34.544048
vn 0.601357 -3.251824 3.078640
v 26.917110 0.000000 34.814510
vn 0.259039 -3.251819 3.126108
v 25.825790 0.000000 34.965839
vn -0.086425 -3.251825 3.135631
v 24.724461 0.000000 34.996201
vn -0.430855 -3.251830 3.107091
v 23.626459 0.000000 34.905220
vn -0.770047 -3.251819 3.040835
v 22.545151 0.000000 34.694000
vn -1.099890 -3.251829 2.937668
v 21.493620 0.000000 34.365108
vn -1.416373 -3.251813 2.798847
v 20.484671 0.000000 33.922539
vn -1.715667 -3.251831 2.626050
v 19.530519 0.000000 33.371670
vn -1.994152 -3.251826 2.421365
v 18.642759 0.000000 32.719170
vn -2.248418 -3.251822 2.187298
v 17.832170 0.000000 31.972969
vn -2.475399 -3.251834 1.926668
v 17.108589 0.000000 31.142130
vn -2.672325 -3.251812 1.642664
v 16.480810 0.000000 30.236731
vn -2.836807 -3.251832 1.338721
v 15.956430 0.000000 29.267771
vn -2.966862 -3.251820 1.018518
v 15.541830 0.000000 28.246990
vn -3.060898 -3.251818 0.685973
v 15.242040 0.000000 27.186810
vn 1.570796 1.570796 1.570795
v 50.000000 50.000000 50.000000
vn 1.570796 -1.570789 1.570796
v 50.000000 0.000000 50.000000
vn -1.570796 -1.570802 1.570796
v 0.000000 0.000000 50.000000
vn -1.570796 1.570796 1.570796
v 0.000000 50.000000 50.000000
vn 1.570796 -1.570797 -1.570795
v 50.000000 0.000000 0.000000
vn 1.570796 1.570796 -1.570796
v 50.000000 50.000000 0.000000
vn -1.570796 1.570796 -1.570796
v 0.000000 50.000000 0.000000
vn -1.570796 -1.570807 -1.570796
v 0.000000 0.000000 0.000000
# 130 vertices, 0 vertices normals


usemtl material_0
f 1//1 2//2 3//3
f 3//3 2//2 4//4
f 2//2 5//5 4//4
f 4//4 5//5 6//6
f 5//5 7//7 6//6
f 6//6 7//7 8//8
f 7//7 1//1 8//8
f 8//8 1//1 3//3
f 9//9 10//10 11//11
f 11//11 10//10 12//12
f 11//11 12//12 13//13
f 13//13 14//14 11//11
f 11//11 14//14 15//15
f 11//11 15//15 16//16
f 16//16 17//17 11//11
f 11//11 17//17 18//18
f 11//11 18//18 19//19
f 19//19 20//20 11//11
f 11//11 20//20 21//21
f 11//11 21//21 22//22
f 22//22 23//23 11//11
f 11//11 23//23 24//24
f 11//11 24//24 25//25
f 25//25 26//26 11//11
f 11//11 26//26 27//27
f 11//11 27//27 28//28
f 28//28 29//29 11//11
f 11//11 29//29 30//30
f 11//11 30//30 31//31
f 31//31 32//32 11//11
f 11//11 32//32 33//33
f 11//11 33//33 34//34
f 34//34 35//35 11//11
f 11//11 35//35 36//36
f 11//11 36//36 37//37
f 37//37 38//38 11//11
f 11//11 38//38 39//39
f 39//39 38//38 40//40
f 9//9 11//11 41//41
f 41//41 11//11 42//42
f 41//41 42//42 43//43
f 43//43 42//42 44//44
f 43//43 44//44 45//45
f 45//45 44//44 46//46
f 45//45 46//46 47//47
f 47//47 46//46 48//48
f 47//47 48//48 49//49
f 49//49 48//48 50//50
f 49//49 50//50 51//51
f 51//51 50//50 52//52
f 51//51 52//52 53//53
f 53//53 52//52 54//54
f 53//53 54//54 55//55
f 55//55 54//54 56//56
f 55//55 56//56 57//57
f 57//57 56//56 58//58
f 57//57 58//58 59//59
f 59//59 58//58 60//60
f 59//59 60//60 61//61
f 61//61 60//60 62//62
f 61//61 62//62 63//63
f 63//63 62//62 64//64
f 63//63 64//64 65//65
f 9//9 66//66 10//10
f 10//10 66//66 67//67
f 10//10 67//67 12//12
f 12//12 67//67 68//68
f 12//12 68//68 13//13
f 13//13 68//68 69//69
f 13//13 69//69 14//14
f 14//14 69//69 70//70
f 14//14 70//70 15//15
f 15//15 70//70 71//71
f 15//15 71//71 16//16
f 16//16 71//71 72//72
f 16//16 72//72 17//17
f 17//17 72//72 73//73
f 17//17 73//73 18//18
f 18//18 73//73 74//74
f 18//18 74//74 19//19
f 19//19 74//74 75//75
f 19//19 75//75 20//20
f 20//20 75//75 76//76
f 20//20 76//76 21//21
f 21//21 76//76 77//77
f 21//21 77//77 22//22
f 22//22 77//77 78//78
f 22//22 78//78 23//23
f 23//23 78//78 79//79
f 23//23 79//79 24//24
f 24//24 79//79 80//80
f 24//24 80//80 25//25
f 25//25 80//80 81//81
f 25//25 81//81 26//26
f 26//26 81//81 82//82
f 26//26 82//82 27//27
f 27//27 82//82 83//83
f 27//27 83//83 28//28
f 28//28 83//83 84//84
f 28//28 84//84 29//29
f 29//29 84//84 85//85
f 29//29 85//85 30//30
f 30//30 85//85 86//86
f 30//30 86//86 31//31
f 31//31 86//86 87//87
f 31//31 87//87 32//32
f 32//32 87//87 88//88
f 32//32 88//88 33//33
f 33//33 88//88 89//89
f 33//33 89//89 34//34
f 34//34 89//89 90//90
f 34//34 90//90 35//35
f 35//35 90//90 91//91
f 35//35 91//91 36//36
f 36//36 91//91 92//92
f 36//36 92//92 37//37
f 37//37 92//92 93//93
f 37//37 93//93 38//38
f 38//38 93//93 94//94
f 38//38 94//94 40//40
f 40//40 94//94 95//95
f 40//40 95//95 39//39
f 39//39 95//95 96//96
f 39//39 96//96 11//11
f 11//11 96//96 97//97
f 11//11 97//97 42//42
f 42//42 97//97 98//98
f 42//42 98//98 44//44
f 44//44 98//98 99//99
f 44//44 99//99 46//46
f 46//46 99//99 100//100
f 46//46 100//100 48//48
f 48//48 100//100 101//101
f 48//48 101//101 50//50
f 50//50 101//101 102//102
f 50//50 102//102 52//52
f 52//52 102//102 103//103
f 52//52 103//103 54//54
f 54//54 103//103 104//104
f 54//54 104//104 56//56
f 56//56 104//104 105//105
f 56//56 105//105 58//58
f 58//58 105//105 106//106
f 58//58 106//106 60//60
f 60//60 106//106 107//107
f 60//60 107//107 62//62
f 62//62 107//107 108//108
f 62//62 108//108 64//64
f 64//64 108//108 109//109
f 64//64 109//109 65//65
f 65//65 109//109 110//110
f 65//65 110//110 63//63
f 63//63 110//110 111//111
f 63//63 111//111 61//61
f 61//61 111//111 112//112
f 61//61 112//112 59//59
f 59//59 112//112 113//113
f 59//59 113//113 57//57
f 57//57 113//113 114//114
f 57//57 114//114 55//55
f 55//55 114//114 115//115
f 55//55 115//115 53//53
f 53//53 115//115 116//116
f 53//53 116//116 51//51
f 51//51 116//116 117//117
f 51//51 117//117 49//49
f 49//49 117//117 118//118
f 49//49 118//118 47//47
f 47//47 118//118 119//119
f 47//47 119//119 45//45
f 45//45 119//119 120//120
f 45//45 120//120 43//43
f 43//43 120//120 121//121
f 43//43 121//121 41//41
f 41//41 121//121 122//122
f 41//41 122//122 9//9
f 9//9 122//122 66//66
f 5//5 2//2 123//123
f 123//123 2//2 1//1
f 123//123 1//1 124//124
f 124//124 1//1 7//7
f 124//124 7//7 125//125
f 125//125 7//7 5//5
f 125//125 5//5 126//126
f 126//126 5//5 123//123
f 8//8 3//3 127//127
f 127//127 3//3 4//4
f 127//127 4//4 128//128
f 128//128 4//4 6//6
f 128//128 6//6 129//129
f 129//129 6//6 8//8
f 129//129 8//8 130//130
f 130//130 8//8 127//127
f 124//124 127//127 123//123
f 123//123 127//127 128//128
f 66//66 125//125 67//67
f 67//67 125//125 130//130
f 67//67 130//130 68//68
f 68//68 130//130 69//69
f 69//69 130//130 70//70
f 70//70 130//130 71//71
f 71//71 130//130 72//72
f 72//72 130//130 73//73
f 73//73 130//130 74//74
f 74//74 130//130 75//75
f 75//75 130//130 76//76
f 76//76 130//130 77//77
f 77//77 130//130 78//78
f 78//78 130//130 79//79
f 79//79 130//130 80//80
f 80//80 130//130 81//81
f 81//81 130//130 127//127
f 81//81 127//127 82//82
f 82//82 127//127 83//83
f 83//83 127//127 84//84
f 84//84 127//127 85//85
f 85//85 127//127 86//86
f 86//86 127//127 87//87
f 87//87 127//127 88//88
f 88//88 127//127 89//89
f 89//89 127//127 90//90
f 90//90 127//127 91//91
f 91//91 127//127 92//92
f 92//92 127//127 93//93
f 93//93 127//127 94//94
f 94//94 127//127 95//95
f 95//95 127//127 124//124
f 95//95 124//124 96//96
f 96//96 124//124 97//97
f 97//97 124//124 98//98
f 98//98 124//124 99//99
f 99//99 124//124 100//100
f 100//100 124//124 101//101
f 101//101 124//124 102//102
f 102//102 124//124 103//103
f 103//103 124//124 104//104
f 104//104 124//124 105//105
f 105//105 124//124 106//106
f 106//106 124//124 107//107
f 107//107 124//124 108//108
f 108//108 124//124 109//109
f 109//109 124//124 110//110
f 110//110 124//124 125//125
f 110//110 125//125 111//111
f 111//111 125//125 112//112
f 112//112 125//125 113//113
f 113//113 125//125 114//114
f 114//114 125//125 115//115
f 115//115 125//125 116//116
f 116//116 125//125 117//117
f 117//117 125//125 118//118
f 118//118 125//125 119//119
f 119//119 125//125 120//120
f 120//120 125//125 121//121
f 121//121 125//125 122//122
f 122//122 125//125 66//66
f 126//126 129//129 125//125
f 125//125 129//129 130//130
f 123//123 128//128 126//126
f 126//126 128//128 129//129
# 260 faces, 0 coords texture

# End of File
